HIERARCHY
ROOT Pelvis
{
	OFFSET 0.000000 0.000000 0.000000
	CHANNELS 6 Xposition Yposition Zposition Xrotation Yrotation Zrotation
	JOINT LeftUpLeg_virtual
	{
		OFFSET 0.000000 0.000000 0.000000
		CHANNELS 3 Xrotation Yrotation Zrotation
		JOINT LeftUpLeg
		{
			OFFSET 18.735201 -5.666702 -4.541200
			CHANNELS 3 Xrotation Yrotation Zrotation
			JOINT LeftLeg
			{
				OFFSET -0.021200 -31.938179 0.493100
				CHANNELS 3 Xrotation Yrotation Zrotation
				JOINT LeftFoot
				{
					OFFSET 0.021200 -31.938179 -4.336299
					CHANNELS 3 Xrotation Yrotation Zrotation
					JOINT LeftToeBase
					{
						OFFSET 0.943001 -26.722000 15.023500
						CHANNELS 3 Xrotation Yrotation Zrotation
						End Site
						{
							OFFSET 0 0 0
						}
					}
				}
			}
		}
	}
	JOINT RightUpLeg_virtual
	{
		OFFSET 0.000000 0.000000 0.000000
		CHANNELS 3 Xrotation Yrotation Zrotation
		JOINT RightUpLeg
		{
			OFFSET -18.735201 -5.666702 -4.541200
			CHANNELS 3 Xrotation Yrotation Zrotation
			JOINT RightLeg
			{
				OFFSET 0.018946 -31.938133 0.493100
				CHANNELS 3 Xrotation Yrotation Zrotation
				JOINT RightFoot
				{
					OFFSET -0.018946 -31.938126 -4.336299
					CHANNELS 3 Xrotation Yrotation Zrotation
					JOINT RightToeBase
					{
						OFFSET -0.943001 -26.722004 15.023500
						CHANNELS 3 Xrotation Yrotation Zrotation
						End Site
						{
							OFFSET 0 0 0
						}
					}
				}
			}
		}
	}
	JOINT Hips_virtual
	{
		OFFSET 0.000000 0.000000 0.000000
		CHANNELS 3 Xrotation Yrotation Zrotation
		JOINT Hips
		{
			OFFSET -0.000000 -0.000000 -0.000000
			CHANNELS 3 Xrotation Yrotation Zrotation
			JOINT Spine
			{
				OFFSET 0.000000 10.199997 -0.299500
				CHANNELS 3 Xrotation Yrotation Zrotation
				JOINT Spine1
				{
					OFFSET 0.000000 11.900002 -1.516600
					CHANNELS 3 Xrotation Yrotation Zrotation
					JOINT Spine2
					{
						OFFSET 0.000000 13.600006 -2.842500
						CHANNELS 3 Xrotation Yrotation Zrotation
						JOINT Neck_virtual
						{
							OFFSET 0.000000 0.000000 0.000000
							CHANNELS 3 Xrotation Yrotation Zrotation
							JOINT Neck
							{
								OFFSET 0.000000 9.624100 -2.890100
								CHANNELS 3 Xrotation Yrotation Zrotation
								JOINT Head
								{
									OFFSET 0.000000 14.068802 -1.351900
									CHANNELS 3 Xrotation Yrotation Zrotation
									End Site
									{
										OFFSET 0 0 0
									}
								}
							}
						}
						JOINT LeftShoulder_virtual
						{
							OFFSET 0.000000 0.000000 0.000000
							CHANNELS 3 Xrotation Yrotation Zrotation
							JOINT LeftShoulder
							{
								OFFSET 15.263000 10.923401 -0.547700
								CHANNELS 3 Xrotation Yrotation Zrotation
								JOINT LeftArm
								{
									OFFSET 25.438599 -2.830597 -13.032500
									CHANNELS 3 Xrotation Yrotation Zrotation
									JOINT LeftForeArm
									{
										OFFSET 29.960503 0.000000 0.000000
										CHANNELS 3 Xrotation Yrotation Zrotation
										JOINT LeftHand
										{
											OFFSET 27.849251 0.000000 0.000000
											CHANNELS 3 Xrotation Yrotation Zrotation
											End Site
											{
												OFFSET 0 0 0
											}
										}
									}
								}
							}
						}
						JOINT RightShoulder_virtual
						{
							OFFSET 0.000000 0.000000 0.000000
							CHANNELS 3 Xrotation Yrotation Zrotation
							JOINT RightShoulder
							{
								OFFSET -15.263000 10.923401 -0.547700
								CHANNELS 3 Xrotation Yrotation Zrotation
								JOINT RightArm
								{
									OFFSET -25.438599 -2.830597 -13.032500
									CHANNELS 3 Xrotation Yrotation Zrotation
									JOINT RightForeArm
									{
										OFFSET -29.960503 0.000000 0.000000
										CHANNELS 3 Xrotation Yrotation Zrotation
										JOINT RightHand
										{
											OFFSET -27.849251 0.000000 0.000000
											CHANNELS 3 Xrotation Yrotation Zrotation
											End Site
											{
												OFFSET 0 0 0
											}
										}
									}
								}
							}
						}
					}
				}
			}
		}
	}
}
MOTION
Frames: 12
Frame Time: 0.03333333
-0.875280 77.266167 8.624054 0.000000 0.000000 0.000000 -150.914300 -83.349905 -144.496928 -51.523696 26.889534 58.864681 59.560998 -15.757001 -3.005160 -4.117550 0.546313 -25.347843 0.000000 0.000000 0.000000 -141.816365 -83.580028 -134.665171 -47.451042 2.926044 -37.030028 53.929859 10.564215 -5.908182 -0.769857 6.624956 16.555866 0.000000 0.000000 0.000000 -143.394371 -84.017979 -136.324142 -0.920930 -0.211934 -0.071440 6.202863 2.110214 -14.143783 -0.913041 5.059617 -5.257068 0.000000 0.000000 0.000000 -7.249921 0.161911 -2.121134 0.399014 -3.451866 -2.308298 0.000000 0.000000 0.000000 -6.204619 0.423965 0.349298 11.313111 -6.709503 -0.783839 -19.826178 19.518278 8.383303 -10.085169 -36.076530 -5.252567 0.000000 0.000000 0.000000 -5.618490 -0.160456 -3.470659 5.767451 6.699830 -5.670434 -17.015557 39.751315 30.930044 160.723080 32.337654 -159.521418 0.000000 0.000000 0.000000 
-0.868706 77.247841 8.626087 0.000000 0.000000 0.000000 -150.918753 -83.330111 -144.495288 -51.516610 26.877240 58.842667 59.584931 -15.729734 -3.014058 -4.150107 0.556713 -25.298806 0.000000 0.000000 0.000000 -141.893041 -83.570957 -134.752584 -47.450591 2.920820 -37.029601 53.849590 10.518151 -5.907803 -0.827707 6.597969 16.461770 0.000000 0.000000 0.000000 -143.412116 -84.000077 -136.338458 -0.920084 -0.211107 -0.071923 6.240958 2.104644 -14.173059 -0.940779 5.047452 -5.245687 0.000000 0.000000 0.000000 -7.219505 0.147543 -2.114148 0.411216 -3.449583 -2.315996 0.000000 0.000000 0.000000 -6.198440 0.411234 0.336136 11.319430 -6.664435 -0.763676 -19.820726 19.640820 8.325750 -10.084143 -36.267034 -5.267312 0.000000 0.000000 0.000000 -5.679853 -0.171870 -3.450792 5.779742 6.747016 -5.686489 -17.104360 39.859813 30.765501 160.722452 32.286205 -159.555514 0.000000 0.000000 0.000000 
-0.876027 77.225182 8.624027 0.000000 0.000000 0.000000 -150.830261 -83.324059 -144.399953 -51.508475 26.865484 58.813748 59.607238 -15.706624 -3.028522 -4.190974 0.553896 -25.249092 0.000000 0.000000 0.000000 -141.873397 -83.572180 -134.741123 -47.445991 2.874381 -37.069588 53.785202 10.444228 -5.895097 -0.953494 6.554982 16.398635 0.000000 0.000000 0.000000 -143.282943 -83.992271 -136.210105 -0.918242 -0.210807 -0.072498 6.264743 2.057910 -14.211796 -0.968014 5.005675 -5.227113 0.000000 0.000000 0.000000 -7.175213 0.114787 -2.109056 0.435366 -3.454993 -2.319684 0.000000 0.000000 0.000000 -6.190803 0.376018 0.316906 11.348836 -6.583327 -0.678417 -19.878053 19.779760 8.194226 -10.022044 -36.499711 -5.229752 0.000000 0.000000 0.000000 -5.737262 -0.199039 -3.426305 5.784617 6.765728 -5.689170 -17.204871 39.989825 30.673714 160.670201 32.285631 -159.574625 0.000000 0.000000 0.000000 
-0.897904 77.201996 8.616882 0.000000 0.000000 0.000000 -150.667129 -83.337406 -144.232422 -51.500897 26.853196 58.775171 59.620434 -15.682246 -3.048541 -4.247770 0.547616 -25.183594 0.000000 0.000000 0.000000 -141.733255 -83.591216 -134.607852 -47.452941 2.809555 -37.146885 53.770114 10.365442 -5.875138 -1.075446 6.526033 16.389840 0.000000 0.000000 0.000000 -143.030705 -84.003773 -135.962606 -0.916270 -0.211446 -0.072981 6.267221 1.975247 -14.254964 -0.995886 4.935681 -5.204259 0.000000 0.000000 0.000000 -7.127997 0.063975 -2.105142 0.468844 -3.468671 -2.318624 0.000000 0.000000 0.000000 -6.181789 0.319262 0.294192 11.400993 -6.470170 -0.524385 -19.975920 19.919750 7.986650 -9.897027 -36.707779 -5.132297 0.000000 0.000000 0.000000 -5.780711 -0.240420 -3.401195 5.782946 6.748467 -5.688083 -17.298383 40.135530 30.702619 160.556082 32.355173 -159.571087 0.000000 0.000000 0.000000 
-0.933436 77.180359 8.598000 0.000000 0.000000 0.000000 -150.469860 -83.373005 -144.036887 -51.486130 26.836389 58.717108 59.612908 -15.656173 -3.071037 -4.333394 0.539365 -25.094161 0.000000 0.000000 0.000000 -141.480320 -83.632429 -134.363222 -47.471293 2.740078 -37.249874 53.792405 10.297651 -5.847266 -1.181316 6.522723 16.430778 0.000000 0.000000 0.000000 -142.691230 -84.041284 -135.633364 -0.914615 -0.212134 -0.073654 6.255042 1.863220 -14.298015 -1.025578 4.841692 -5.182517 0.000000 0.000000 0.000000 -7.086690 -0.007679 -2.103829 0.507054 -3.491208 -2.313153 0.000000 0.000000 0.000000 -6.172655 0.241228 0.269391 11.473058 -6.324068 -0.304059 -20.098339 20.035544 7.703686 -9.709831 -36.859874 -4.970489 0.000000 0.000000 0.000000 -5.805771 -0.296396 -3.382229 5.773266 6.685333 -5.712980 -17.419257 40.315714 30.875320 160.377978 32.493276 -159.544558 0.000000 0.000000 0.000000 
-0.981768 77.162674 8.566589 0.000000 0.000000 0.000000 -150.258739 -83.433527 -143.837227 -51.464533 26.809502 58.640084 59.579528 -15.628730 -3.096200 -4.427389 0.523697 -24.976818 0.000000 0.000000 0.000000 -141.158509 -83.701509 -134.060358 -47.497019 2.667488 -37.367367 53.821337 10.244416 -5.803708 -1.282012 6.540462 16.505728 0.000000 0.000000 0.000000 -142.288727 -84.109709 -135.248401 -0.912220 -0.211705 -0.074369 6.235229 1.730272 -14.335464 -1.055422 4.727912 -5.165972 0.000000 0.000000 0.000000 -7.057526 -0.099503 -2.108325 0.545012 -3.523828 -2.303693 0.000000 0.000000 0.000000 -6.166063 0.143662 0.242473 11.559977 -6.152748 -0.034822 -20.237825 20.126315 7.349007 -9.477851 -36.952829 -4.755115 0.000000 0.000000 0.000000 -5.809733 -0.367203 -3.374434 5.755049 6.572513 -5.787125 -17.631722 40.529929 31.207121 160.152800 32.677128 -159.506268 0.000000 0.000000 0.000000 
-1.037628 77.153229 8.521519 0.000000 0.000000 0.000000 -150.004082 -83.519471 -143.602842 -51.453236 26.772562 58.556769 59.538117 -15.595053 -3.127415 -4.510871 0.500003 -24.824794 0.000000 0.000000 0.000000 -140.774338 -83.796982 -133.709381 -47.533151 2.597749 -37.494060 53.841019 10.200779 -5.741605 -1.374590 6.563060 16.588641 0.000000 0.000000 0.000000 -141.823851 -84.206411 -134.809288 -0.908929 -0.210202 -0.075348 6.211058 1.583814 -14.361123 -1.085541 4.596935 -5.156041 0.000000 0.000000 0.000000 -7.041492 -0.208832 -2.121042 0.578991 -3.567849 -2.291202 0.000000 0.000000 0.000000 -6.166392 0.029463 0.212924 11.653557 -5.962078 0.254196 -20.388422 20.193640 6.944824 -9.227987 -37.020773 -4.508236 0.000000 0.000000 0.000000 -5.799204 -0.452762 -3.377877 5.727100 6.417075 -5.909021 -17.941042 40.782749 31.681477 159.904127 32.868540 -159.477144 0.000000 0.000000 0.000000 
-1.097728 77.151741 8.461739 0.000000 0.000000 0.000000 -149.636235 -83.636807 -143.263587 -51.468904 26.726322 58.480811 59.501248 -15.557665 -3.167457 -4.584711 0.460893 -24.646664 0.000000 0.000000 0.000000 -140.257279 -83.918204 -133.237074 -47.592543 2.548687 -37.619050 53.868766 10.162860 -5.673119 -1.421964 6.577447 16.639673 0.000000 0.000000 0.000000 -141.199435 -84.336553 -134.222001 -0.905476 -0.208312 -0.076476 6.183888 1.425660 -14.367834 -1.117972 4.447868 -5.150050 0.000000 0.000000 0.000000 -7.036080 -0.331648 -2.140633 0.607522 -3.624503 -2.274643 0.000000 0.000000 0.000000 -6.180675 -0.098104 0.181182 11.745742 -5.760818 0.539623 -20.543008 20.235168 6.524989 -8.969447 -37.084881 -4.244116 0.000000 0.000000 0.000000 -5.783597 -0.551283 -3.390748 5.687584 6.229881 -6.060340 -18.327771 41.051991 32.271691 159.658377 33.039128 -159.477513 0.000000 0.000000 0.000000 
-1.162400 77.159096 8.393806 0.000000 0.000000 0.000000 -149.067376 -83.792146 -142.730695 -51.516179 26.673355 58.418130 59.464993 -15.524759 -3.220075 -4.645968 0.392262 -24.469880 0.000000 0.000000 0.000000 -139.519277 -84.068359 -132.553167 -47.677770 2.531050 -37.740972 53.925655 10.115869 -5.610533 -1.443274 6.548426 16.608338 0.000000 0.000000 0.000000 -140.329720 -84.501926 -133.400725 -0.902239 -0.207126 -0.077860 6.159033 1.258651 -14.353899 -1.152550 4.283423 -5.144733 0.000000 0.000000 0.000000 -7.034847 -0.462126 -2.163314 0.630095 -3.694132 -2.253863 0.000000 0.000000 0.000000 -6.212349 -0.233991 0.147435 11.828569 -5.551043 0.798802 -20.680073 20.256622 6.117911 -8.719458 -37.168038 -3.983376 0.000000 0.000000 0.000000 -5.769619 -0.657846 -3.410555 5.633012 6.032084 -6.210201 -18.728030 41.284874 32.878734 159.442952 33.168963 -159.524081 0.000000 0.000000 0.000000 
-1.230263 77.173164 8.327106 0.000000 0.000000 0.000000 -148.275334 -83.979498 -141.978145 -51.584925 26.620573 58.366241 59.420303 -15.500660 -3.287778 -4.701466 0.287809 -24.316396 0.000000 0.000000 0.000000 -138.507726 -84.243703 -131.600533 -47.779963 2.540382 -37.864639 54.023279 10.048010 -5.551562 -1.490796 6.452961 16.478552 0.000000 0.000000 0.000000 -139.184092 -84.692078 -132.309439 -0.899150 -0.206290 -0.078995 6.143654 1.084420 -14.323492 -1.187131 4.113166 -5.141460 0.000000 0.000000 0.000000 -7.032300 -0.596813 -2.186523 0.645456 -3.774901 -2.231956 0.000000 0.000000 0.000000 -6.257524 -0.374477 0.112388 11.898271 -5.333365 1.019988 -20.781428 20.254605 5.744780 -8.488925 -37.278964 -3.738116 0.000000 0.000000 0.000000 -5.758257 -0.768883 -3.433695 5.561093 5.843462 -6.344772 -19.051588 41.441643 33.366751 159.274930 33.244679 -159.626425 0.000000 0.000000 0.000000 
-1.301596 77.191315 8.264370 0.000000 0.000000 0.000000 -147.303302 -84.186883 -141.048106 -51.658558 26.573336 58.319126 59.353702 -15.487176 -3.369165 -4.763503 0.146653 -24.195621 0.000000 0.000000 0.000000 -137.240548 -84.436089 -130.395647 -47.891620 2.571542 -37.991831 54.154914 9.973779 -5.488267 -1.548079 6.320354 16.298274 0.000000 0.000000 0.000000 -137.808055 -84.894122 -130.990556 -0.895364 -0.205396 -0.079857 6.139193 0.905927 -14.282486 -1.218831 3.942721 -5.141685 0.000000 0.000000 0.000000 -7.026248 -0.733750 -2.209714 0.652104 -3.865227 -2.210648 0.000000 0.000000 0.000000 -6.308626 -0.518785 0.077240 11.951904 -5.115299 1.190889 -20.842179 20.235069 5.414955 -8.287008 -37.410896 -3.515969 0.000000 0.000000 0.000000 -5.743931 -0.881505 -3.458734 5.469308 5.676692 -6.456396 -19.273313 41.521816 33.699586 159.149063 33.282231 -159.778383 0.000000 0.000000 0.000000 
-1.376915 77.211678 8.208183 0.000000 0.000000 0.000000 -146.207357 -84.402553 -139.997185 -51.729804 26.534983 58.274832 59.267088 -15.475841 -3.462734 -4.828837 -0.018026 -24.084068 0.000000 0.000000 0.000000 -135.790472 -84.637573 -129.012151 -48.014857 2.619317 -38.128742 54.309006 9.912270 -5.413668 -1.577695 6.193581 16.129582 0.000000 0.000000 0.000000 -136.275921 -85.096835 -129.516588 -0.891025 -0.204665 -0.080826 6.146969 0.723559 -14.233537 -1.245174 3.772807 -5.144440 0.000000 0.000000 0.000000 -7.017762 -0.873067 -2.232783 0.648769 -3.963305 -2.191801 0.000000 0.000000 0.000000 -6.359061 -0.667807 0.043537 11.988683 -4.899378 1.307513 -20.874197 20.202052 5.130119 -8.121791 -37.559046 -3.318656 0.000000 0.000000 0.000000 -5.720095 -0.995754 -3.484452 5.358387 5.540794 -6.546436 -19.415410 41.552118 33.920540 159.049848 33.300184 -159.961664 0.000000 0.000000 0.000000 
